<?xml version="1.0" encoding="UTF-8"?> <svg xmlns="http://www.w3.org/2000/svg" xmlns:xlink="http://www.w3.org/1999/xlink" width="670px" height="767px" viewBox="0 0 670 767" version="1.1"><!-- Generator: Sketch 63.1 (92452) - https://sketch.com --><title>hi-banner-blue-shape</title><desc>Created with Sketch.</desc><defs><linearGradient x1="5.32595374%" y1="0%" x2="94.6740463%" y2="98.3311884%" id="linearGradient-1"><stop stop-color="#3A9CF0" offset="0%"></stop><stop stop-color="#2F5596" offset="100%"></stop></linearGradient></defs><g id="Base-Pages" stroke="none" stroke-width="1" fill="none" fill-rule="evenodd"><g id="Home3" transform="translate(-930.000000, -139.000000)" fill="url(#linearGradient-1)"><g id="hi-banner-blue-shape" transform="translate(930.000000, 139.000000)"><path d="M144.039066,732.025185 C95.7824645,714.457558 50.6184895,684.325675 25.8949934,640.813487 C-3.00243405,589.956087 -3.9149341,527.642638 4.90191848,471.742863 C14.2602196,412.414457 44.6338906,366.661382 82.7677932,320.226864 C112.057771,284.561599 135.416498,249.19155 130.738542,202.117653 C127.419781,168.712395 109.475539,139.130408 104.245783,106.175621 C95.6550649,52.0509647 132.594596,3.9223983 190.838534,0.220730367 C229.970932,-2.26642338 268.565066,16.4996564 294.616703,44.6568065 C328.124406,80.8689085 351.467208,109.714385 406.027704,114.18239 C445.367126,117.403759 485.589587,107.668525 519.031997,87.6114507 C569.065028,57.6034666 632.564999,17.6958152 683.942096,72.5416852 C698.186174,87.7460568 706.058676,107.660877 709.691955,127.815847 C717.648064,171.948295 713.483688,214.467764 696.826182,256.109998 C669.818251,323.627963 670.398716,415.071398 700.44274,481.628764 C714.529957,512.835966 731.412801,551.953571 722.531452,586.239888 C714.046635,618.994296 691.496099,647.652395 665.127555,669.279619 C614.629516,710.697 547.292426,739.554714 482.92773,753.542277 C375.10303,776.975212 247.82042,769.808966 144.039066,732.025185 Z" id="Fill-1"></path></g></g></g></svg> 